<svg width="543" height="171" viewBox="0 0 543 171" fill="none" xmlns="http://www.w3.org/2000/svg">
<path d="M44 6V27H22V66.2C30.1333 66.0667 37.8 65.3333 45 64V85C34.7333 86.6 22.4 87.6 8 88C5.46667 88 3.46667 87.3333 2 86C0.666667 84.5333 1.49012e-08 82.5333 1.49012e-08 80V6H44ZM99 6V27H73V66.6C84.3333 66.0667 94.3333 64.5333 103 62L105 82C88.0667 86 69.7333 88 50 88V6H99ZM138 -4.52995e-06V33H159V54H138V97H115V-4.52995e-06H138ZM138 171H115V129H9V108H138V171ZM195.992 7.99999L192.992 122H173.992L170.992 7.99999H195.992ZM182.992 170C178.592 170 174.992 168.467 172.192 165.4C169.392 162.333 167.992 158.533 167.992 154C167.992 149.467 169.392 145.667 172.192 142.6C174.992 139.533 178.592 138 182.992 138C187.526 138 191.326 139.533 194.392 142.6C197.459 145.667 198.992 149.467 198.992 154C198.992 158.533 197.459 162.333 194.392 165.4C191.326 168.467 187.526 170 182.992 170ZM267.066 10V48C267.066 65.8667 270.733 81.8 278.066 95.8C285.533 109.8 294.533 121.2 305.066 130L290.066 145C275.266 131.8 264.066 116.467 256.466 99C252.333 109 247.4 118 241.666 126C235.933 134 230.066 140.667 224.066 146L208.066 131C214.466 126.067 220.466 119.533 226.066 111.4C231.666 103.133 236.2 93.6 239.666 82.8C243.266 71.8667 245.066 60.2667 245.066 48V10H267.066ZM311.066 54V-4.52995e-06H333.066V169H311.066V77H286.066V54H311.066ZM368.066 -4.52995e-06V169H346.066V-4.52995e-06H368.066ZM388.059 40C401.125 39.4667 413.725 37.9333 425.859 35.4C438.125 32.7333 445.992 28.9333 449.459 24H397.059L396.059 2.99999H530.059V24H476.659C479.992 28.6667 486.992 32 497.659 34C508.325 36 521.792 37.6667 538.059 39L529.059 59C497.592 57.5333 475.525 51.6667 462.859 41.4C455.125 47.6667 445.192 52.2 433.059 55C420.925 57.8 408.925 59.4667 397.059 60L388.059 40ZM542.059 65V86H475.059V97H528.059V142H420.059V152H529.059L531.059 170H407.059C404.525 170 402.525 169.267 401.059 167.8C399.725 166.467 399.059 164.533 399.059 162V125H507.059V115H399.059V97H451.059V86H385.059V65H542.059Z" fill="#303A7D"/>
</svg>
