<svg width="400" height="400" viewBox="0 0 400 400" fill="none" xmlns="http://www.w3.org/2000/svg">
<rect x="44" y="94" width="313" height="58" rx="13" fill="#D9D9D9"/>
<rect x="44" y="171" width="313" height="58" rx="13" fill="#D9D9D9"/>
<rect x="44" y="248" width="313" height="58" rx="13" fill="#D9D9D9"/>
<path d="M168.63 348.689C183.15 351.723 197.38 342.413 200.415 327.894C203.45 313.374 194.14 299.143 179.62 296.108C165.101 293.074 150.87 302.384 147.835 316.903C144.8 331.423 154.11 345.654 168.63 348.689Z" fill="#303A7D"/>
<path d="M215.069 257.787C213.612 264.759 209.444 270.867 203.483 274.767C197.522 278.667 190.256 280.039 183.284 278.581C176.311 277.124 170.203 272.957 166.304 266.996C162.404 261.035 161.032 253.769 162.489 246.796L197.292 80.2925C198.749 73.3199 202.917 67.2119 208.878 63.3121C214.838 59.4123 222.104 58.0402 229.077 59.4976C236.049 60.955 242.158 65.1226 246.057 71.0835C249.957 77.0443 251.329 84.3103 249.872 91.2828L215.069 257.787Z" fill="#303A7D"/>
</svg>
