<svg width="1466" height="400" viewBox="0 0 1466 400" fill="none" xmlns="http://www.w3.org/2000/svg">
<rect x="44" y="94" width="313" height="58" rx="13" fill="#D9D9D9"/>
<rect x="44" y="171" width="313" height="58" rx="13" fill="#D9D9D9"/>
<rect x="44" y="248" width="313" height="58" rx="13" fill="#D9D9D9"/>
<path d="M168.63 348.689C183.15 351.723 197.38 342.413 200.415 327.894C203.45 313.374 194.14 299.143 179.62 296.108C165.101 293.074 150.87 302.384 147.835 316.903C144.8 331.423 154.11 345.654 168.63 348.689Z" fill="#303A7D"/>
<path d="M215.069 257.787C213.612 264.759 209.444 270.867 203.483 274.767C197.522 278.667 190.256 280.039 183.284 278.581C176.311 277.124 170.203 272.957 166.304 266.996C162.404 261.035 161.032 253.769 162.489 246.796L197.292 80.2925C198.749 73.3199 202.917 67.2119 208.878 63.3121C214.838 59.4123 222.104 58.0402 229.077 59.4976C236.049 60.955 242.158 65.1226 246.057 71.0835C249.957 77.0443 251.329 84.3103 249.872 91.2828L215.069 257.787Z" fill="#303A7D"/>
<path d="M1180.63 115.74C1204.83 114.753 1228.16 111.913 1250.63 107.222C1273.35 102.283 1287.91 95.2463 1294.33 86.1105H1197.3L1195.45 47.2214H1443.59V86.1105H1344.71C1350.88 94.7525 1363.84 100.925 1383.59 104.629C1403.35 108.333 1428.29 111.419 1458.41 113.888L1441.74 150.926C1383.47 148.21 1342.61 137.345 1319.15 118.333C1304.83 129.938 1286.43 138.333 1263.96 143.518C1241.49 148.703 1219.27 151.79 1197.3 152.777L1180.63 115.74ZM1465.82 162.037V200.926H1341.74V221.296H1439.89V304.63H1239.89V323.149H1441.74L1445.45 356.482H1215.82C1211.12 356.482 1207.42 355.124 1204.7 352.408C1202.24 349.939 1201 346.359 1201 341.667V273.148H1401V254.63H1201V221.296H1297.3V200.926H1175.07V162.037H1465.82Z" fill="#303A7D"/>
<path d="M956.57 60.1846V130.555C956.57 163.642 963.36 193.148 976.94 219.074C990.767 245 1007.43 266.111 1026.94 282.408L999.162 310.186C971.755 285.741 951.014 257.346 936.94 225C929.285 243.519 920.15 260.185 909.532 275C898.915 289.815 888.051 302.161 876.94 312.038L847.31 284.26C859.162 275.124 870.273 263.025 880.643 247.963C891.014 232.654 899.409 215 905.829 195C912.495 174.753 915.829 153.271 915.829 130.555V60.1846H956.57ZM1038.05 141.666V41.666H1078.79V354.63H1038.05V184.259H991.755V141.666H1038.05ZM1143.61 41.666V354.63H1102.87V41.666H1143.61Z" fill="#303A7D"/>
<path d="M824.95 56.4807L819.395 267.593H784.209L778.654 56.4807H824.95ZM800.876 356.482C792.728 356.482 786.061 353.642 780.876 347.963C775.691 342.284 773.098 335.247 773.098 326.852C773.098 318.457 775.691 311.42 780.876 305.741C786.061 300.062 792.728 297.223 800.876 297.223C809.271 297.223 816.308 300.062 821.987 305.741C827.666 311.42 830.506 318.457 830.506 326.852C830.506 335.247 827.666 342.284 821.987 347.963C816.308 353.642 809.271 356.482 800.876 356.482Z" fill="#303A7D"/>
<path d="M543.482 52.7772V91.6662H502.741V164.259C517.803 164.012 532 162.654 545.334 160.185V199.074C526.321 202.037 503.482 203.889 476.815 204.63C472.124 204.63 468.42 203.395 465.704 200.926C463.235 198.21 462 194.506 462 189.815V52.7772H543.482ZM645.334 52.7772V91.6662H597.186V165C618.174 164.012 636.692 161.173 652.742 156.481L656.445 193.519C625.087 200.926 591.136 204.63 554.593 204.63V52.7772H645.334ZM717.557 41.666V102.777H756.446V141.666H717.557V221.296H674.964V41.666H717.557ZM717.557 358.334H674.964V280.556H478.667V241.667H717.557V358.334Z" fill="#303A7D"/>
</svg>
